<svg height='100px' width='100px'  fill="#ffffff" xmlns="http://www.w3.org/2000/svg" xmlns:xlink="http://www.w3.org/1999/xlink" version="1.1" x="0px" y="0px" viewBox="0 0 1000 1000" enable-background="new 0 0 1000 1000" xml:space="preserve"><g><path d="M824.733,63.624c-65.724,0-119.194,49.658-119.194,110.697c0,17.008,4.044,33.329,12.02,48.508   c2.124,4.042,50.415,82.142,63.609,103.469v32.617c0,5.523,4.478,10,10,10H854.9c5.522,0,10-4.477,10-10v-32.481   c13.607-20.813,62.137-95.122,67.219-104.059c0.175-0.292,0.334-0.59,0.477-0.895c7.52-14.813,11.332-30.677,11.332-47.16   C943.928,113.282,890.457,63.624,824.733,63.624z M849.491,313.454H796.74c-5.141-8.31-10.722-17.338-16.354-26.458h86.372   C860.802,296.137,854.908,305.167,849.491,313.454z M844.9,348.915h-43.732v-15.461H844.9V348.915z M914.637,212.672   c-1.679,3.096-17.164,27.095-34.861,54.324H768.041c-16.84-27.299-31.487-51.128-32.777-53.471   c-6.453-12.28-9.725-25.471-9.725-39.205c0-50.01,44.498-90.697,99.194-90.697s99.194,40.687,99.194,90.697   C923.928,187.717,920.802,200.621,914.637,212.672z"></path><path d="M224.651,631.084c-65.724,0-119.194,49.658-119.194,110.696c0,17.008,4.044,33.328,12.021,48.509   c2.124,4.041,50.414,82.141,63.608,103.469v32.617c0,5.522,4.477,10,10,10h63.732c5.523,0,10-4.478,10-10v-32.481   c13.604-20.806,62.105-95.073,67.213-104.05c0.177-0.295,0.337-0.596,0.481-0.902c7.52-14.813,11.333-30.679,11.333-47.161   C343.846,680.742,290.375,631.084,224.651,631.084z M249.409,880.914h-52.751c-5.141-8.311-10.721-17.339-16.354-26.458h86.373   C260.72,863.597,254.826,872.627,249.409,880.914z M244.818,916.375h-43.732v-15.461h43.732V916.375z M314.558,780.126   c-1.661,3.068-17.155,27.082-34.865,54.33H167.959c-16.84-27.3-31.487-51.13-32.777-53.471   c-6.453-12.281-9.725-25.472-9.725-39.205c0-37.817,25.449-70.297,61.508-83.89c-1.068,0.483-2.073,1.152-2.951,2.03   l-41.124,41.124c-1.875,1.876-2.929,4.419-2.929,7.071s1.054,5.195,2.929,7.071l41.124,41.124c1.953,1.953,4.512,2.929,7.071,2.929   c2.559,0,5.119-0.977,7.071-2.929l41.125-41.124c1.875-1.876,2.929-4.419,2.929-7.071s-1.054-5.195-2.929-7.071l-41.125-41.124   c-2.666-2.665-6.461-3.508-9.844-2.534c11.258-4.067,23.519-6.303,36.339-6.303c54.696,0,99.194,40.687,99.194,90.696   C323.846,755.174,320.721,768.075,314.558,780.126z M191.085,681.134l26.983,26.982l-26.983,26.982l-26.982-26.982L191.085,681.134   z"></path><path d="M715.539,468.143c-2.734,0-5.441,0.104-8.13,0.274c4.614-16.81,6.943-34.145,6.943-51.855   c0-56.325-23.736-109.233-66.836-148.979c-42.874-39.539-99.824-61.313-160.358-61.313s-117.484,21.774-160.359,61.313   c-43.1,39.746-66.835,92.654-66.835,148.979c0,32.211,7.662,63.125,22.774,91.883c4.204,8.001,109.436,178.144,127.657,207.595   v67.691c0,5.522,4.477,10,10,10h126.767c5.522,0,10-4.478,10-10v-67.556c7.726-11.815,30.052-45.976,54.416-83.417   c11.366,18.772,48.99,79.622,60.396,98.059v32.617c0,5.522,4.478,10,10,10h63.732c5.522,0,10-4.478,10-10v-32.481   c13.603-20.807,62.105-95.073,67.214-104.05c0.177-0.295,0.337-0.596,0.48-0.902c7.52-14.813,11.333-30.679,11.333-47.161   C834.733,517.801,781.263,468.143,715.539,468.143z M679.127,528.246l20.342,20.342l-26.982,26.982l-14.452-14.452   C666.126,548.576,673.371,537.293,679.127,528.246z M681.564,482.506l-35.95-35.95l47.408-47.409l0.503,0.502   c0.537,5.574,0.827,11.212,0.827,16.912C694.353,439.359,690.055,461.472,681.564,482.506z M279.964,416.561   c0-104.927,92.947-190.292,207.194-190.292c98.957,0,181.92,64.05,202.356,149.378c-1.298,0.486-2.519,1.242-3.563,2.286   L624.4,439.484c-3.905,3.905-3.905,10.237,0,14.143l47.92,47.92c-8.655,14.121-37.898,59.383-70.314,109.242h-233.13   c-0.171-0.276-0.342-0.554-0.513-0.83l41.337-41.337c1.875-1.876,2.929-4.419,2.929-7.071s-1.054-5.195-2.929-7.071l-61.551-61.551   c-3.904-3.905-10.237-3.905-14.142,0l-23.288,23.288c-5.88-9.637-9.59-15.788-10.277-17.076   C286.854,473.282,279.964,445.498,279.964,416.561z M541.752,703.195h-8.943l19.866-72.406h36.318   C572.76,655.725,556.317,680.919,541.752,703.195z M497.158,703.195v-72.406h34.777l-19.866,72.406H497.158z M458.585,703.195   l-19.866-72.406h38.438v72.406H458.585z M381.218,630.789h36.763l19.866,72.406h-11.88   C412.146,680.855,396.574,655.661,381.218,630.789z M357.574,592.464c-13.677-22.186-26.253-42.62-36.117-58.701l19.621-19.62   l47.409,47.408L357.574,592.464z M537.161,773.73H430.395v-50.535h106.767V773.73z M740.297,717.973h-52.751   c-5.141-8.311-10.722-17.339-16.354-26.458h86.372C751.607,700.655,745.714,709.686,740.297,717.973z M735.706,753.434h-43.732   v-15.461h43.732V753.434z M805.446,617.185c-1.661,3.068-17.155,27.082-34.865,54.33H658.847   c-16.84-27.3-31.487-51.13-32.777-53.471c-0.749-1.427-1.454-2.866-2.117-4.316c7.799-12.002,15.59-24.011,22.979-35.428   l18.483,18.483c1.953,1.952,4.512,2.929,7.071,2.929s5.118-0.977,7.071-2.929l41.125-41.124c1.875-1.876,2.929-4.419,2.929-7.071   s-1.054-5.195-2.929-7.071l-30.653-30.653c1.038-1.706,1.803-3,2.258-3.829c0.19-0.319,0.361-0.647,0.514-0.981   c2.819-5.541,5.354-11.163,7.623-16.853c4.93-0.693,9.977-1.058,15.115-1.058c54.696,0,99.194,40.687,99.194,90.696   C814.733,592.232,811.608,605.134,805.446,617.185z"></path><path d="M163.937,286.996c15.762,0,31.179-5.45,43.411-15.347c7.43-6.011,13.515-13.508,17.886-21.901   c13.703,11.892,31.406,18.672,49.848,18.672c41.905,0,75.997-34.092,75.997-75.997s-34.092-75.997-75.997-75.997   c-5.922,0-11.739,0.673-17.408,2.008c-4.011-38.993-37.052-69.505-77.087-69.505c-39.346,0-71.938,29.476-76.855,67.505   c-40.155,0.594-72.637,33.444-72.637,73.738c0,40.664,33.083,73.747,73.747,73.747c2.399,0,4.822-0.122,7.249-0.365   C125.135,278.331,144.099,286.996,163.937,286.996z M51.094,190.173c0-29.636,24.111-53.747,53.747-53.747   c2.233,0,4.581,0.157,6.978,0.468c2.857,0.369,5.742-0.512,7.905-2.422c2.163-1.91,3.395-4.661,3.38-7.545   c-0.001-0.18-0.006-0.358-0.014-0.583c0.044-31.667,25.82-57.413,57.497-57.413c31.704,0,57.497,25.793,57.497,57.497   c0,1.568-0.077,3.215-0.235,5.037c-0.308,3.541,1.288,6.979,4.19,9.03c2.902,2.052,6.675,2.409,9.911,0.938   c7.307-3.321,15.09-5.005,23.133-5.005c30.876,0,55.997,25.12,55.997,55.997c0,30.877-25.12,55.997-55.997,55.997   c-17.92,0-34.899-8.697-45.419-23.266c-2.301-3.187-6.253-4.73-10.107-3.943c-3.851,0.786-6.885,3.754-7.753,7.588   c-5.096,22.49-24.779,38.197-47.866,38.197c-15.547,0-30.342-7.495-39.575-20.05c-1.905-2.589-4.91-4.076-8.055-4.076   c-0.594,0-1.193,0.053-1.791,0.162c-3.238,0.589-6.494,0.888-9.676,0.888C75.205,243.92,51.094,219.809,51.094,190.173z"></path><path d="M363.296,456.556c2.652,0,5.196-1.054,7.071-2.929l61.551-61.551c1.875-1.875,2.929-4.419,2.929-7.071   s-1.054-5.196-2.929-7.071l-61.552-61.551c-3.905-3.905-10.237-3.904-14.142,0l-61.551,61.551c-3.905,3.905-3.905,10.237,0,14.142   l61.551,61.552C358.101,455.502,360.644,456.556,363.296,456.556z M363.296,337.596l47.409,47.409l-47.409,47.409l-47.409-47.409   L363.296,337.596z"></path><path d="M247.748,717.803l-41.125,41.124c-1.875,1.876-2.929,4.419-2.929,7.071s1.054,5.195,2.929,7.071l41.125,41.124   c1.953,1.953,4.511,2.929,7.071,2.929c2.559,0,5.119-0.977,7.071-2.929l41.125-41.124c1.875-1.876,2.929-4.419,2.929-7.071   s-1.054-5.195-2.929-7.071l-41.125-41.124C257.984,713.898,251.652,713.898,247.748,717.803z M254.818,792.98l-26.982-26.982   l26.982-26.982l26.983,26.982L254.818,792.98z"></path><path d="M842.293,150.089c0-2.652-1.054-5.196-2.929-7.071l-41.125-41.124c-3.906-3.905-10.236-3.905-14.143,0l-41.125,41.124   c-1.875,1.875-2.929,4.419-2.929,7.071s1.054,5.196,2.929,7.071l41.125,41.124c1.953,1.953,4.512,2.929,7.071,2.929   s5.118-0.976,7.071-2.929l41.125-41.124C841.239,155.285,842.293,152.741,842.293,150.089z M791.168,177.071l-26.982-26.982   l26.982-26.982l26.982,26.982L791.168,177.071z"></path><path d="M847.829,159.775l-41.124,41.124c-3.905,3.905-3.905,10.237,0,14.143l41.124,41.124c1.953,1.953,4.512,2.929,7.071,2.929   c2.559,0,5.118-0.977,7.071-2.929l41.125-41.124c1.875-1.875,2.929-4.419,2.929-7.071s-1.054-5.196-2.929-7.071l-41.125-41.124   C858.065,155.87,851.735,155.87,847.829,159.775z M854.9,234.953l-26.981-26.982l26.981-26.982l26.982,26.982L854.9,234.953z"></path><path d="M743.29,558.274c-3.906-3.904-10.236-3.904-14.143,0l-41.124,41.124c-3.905,3.905-3.905,10.237,0,14.143l41.124,41.124   c1.953,1.953,4.512,2.929,7.071,2.929c2.559,0,5.118-0.977,7.071-2.929l41.125-41.124c1.875-1.876,2.929-4.419,2.929-7.071   s-1.054-5.195-2.929-7.071L743.29,558.274z M736.219,633.452l-26.981-26.982l26.981-26.982l26.982,26.982L736.219,633.452z"></path><path d="M507.071,413.304c-3.905-3.904-10.237-3.905-14.143,0l-61.551,61.551c-3.905,3.905-3.905,10.237,0,14.143l61.551,61.551   c1.953,1.952,4.512,2.929,7.071,2.929c2.56,0,5.118-0.977,7.071-2.929l61.551-61.551c3.905-3.905,3.905-10.237,0-14.143   L507.071,413.304z M500,529.334l-47.409-47.408L500,434.517l47.408,47.409L500,529.334z"></path><path d="M537.978,407.169c1.953,1.953,4.512,2.929,7.071,2.929s5.118-0.976,7.071-2.929l61.551-61.551   c3.905-3.905,3.905-10.237,0-14.143l-61.551-61.551c-3.906-3.905-10.236-3.905-14.143,0l-61.551,61.551   c-3.905,3.905-3.905,10.237,0,14.143L537.978,407.169z M545.049,291.138l47.408,47.409l-47.408,47.409l-47.409-47.409   L545.049,291.138z"></path></g></svg>