<svg height='100px' width='100px'  fill="#ffffff" xmlns="http://www.w3.org/2000/svg" xmlns:xlink="http://www.w3.org/1999/xlink" version="1.1" x="0px" y="0px" viewBox="0 0 100 100" enable-background="new 0 0 100 100" xml:space="preserve"><g><path fill="none" stroke="#ffffff" stroke-width="3" stroke-linecap="round" stroke-linejoin="round" stroke-miterlimit="10" d="   M14.074,47.454h6.644c3.038-3.875,7.748-6.374,13.055-6.374c2.796,0,5.426,0.698,7.739,1.918   c3.476-7.56,11.096-12.819,19.962-12.819c0.098,0,0.194,0.006,0.291,0.007c-1.924-4.207-6.155-7.137-11.083-7.137   c-2.053,0-3.983,0.513-5.682,1.408c-2.552-5.55-8.146-9.412-14.655-9.412c-8.913,0-16.139,7.226-16.139,16.139   c0,0.002,0,0.004,0,0.007c-0.044-0.001-0.087-0.007-0.132-0.007c-4.493,0-8.135,3.642-8.135,8.135   C5.939,43.812,9.581,47.454,14.074,47.454z"></path><path fill="none" stroke="#ffffff" stroke-width="3" stroke-linecap="round" stroke-linejoin="round" stroke-miterlimit="10" d="   M83.634,52.161c-0.061,0-0.119,0.008-0.179,0.009c0-0.003,0-0.006,0-0.009c0-12.141-9.842-21.982-21.982-21.982   c-8.866,0-16.486,5.26-19.962,12.819c-2.312-1.22-4.942-1.918-7.739-1.918c-7.251,0-13.401,4.652-15.672,11.128   c-0.313-0.026-0.628-0.047-0.948-0.047c-6.12,0-11.08,4.96-11.08,11.08c0,6.119,4.96,11.08,11.08,11.08h66.481   c6.12,0,11.08-4.961,11.08-11.08C94.714,57.121,89.753,52.161,83.634,52.161z"></path></g></svg>